<?xml version="1.0" standalone="no"?>
<!DOCTYPE svg PUBLIC "-//W3C//DTD SVG 1.1//EN" "http://www.w3.org/Graphics/SVG/1.1/DTD/svg11.dtd" >
<svg xmlns="http://www.w3.org/2000/svg">
<metadata>
Created by FontForge 20120731 at Wed Jun  8 14:44:08 2016
 By admin
</metadata>
<defs>
<font id="iconfont" horiz-adv-x="1024" >
  <font-face 
    font-family="iconfont"
    font-weight="500"
    font-stretch="normal"
    units-per-em="1024"
    panose-1="2 0 6 3 0 0 0 0 0 0"
    ascent="896"
    descent="-128"
    x-height="792"
    bbox="0 -128 1325 896"
    underline-thickness="50"
    underline-position="-100"
    unicode-range="U+0078-E63A"
  />
<missing-glyph horiz-adv-x="374" 
d="M34 0v682h272v-682h-272zM68 34h204v614h-204v-614z" />
    <glyph glyph-name=".notdef" horiz-adv-x="374" 
d="M34 0v682h272v-682h-272zM68 34h204v614h-204v-614z" />
    <glyph glyph-name=".null" horiz-adv-x="0" 
 />
    <glyph glyph-name="nonmarkingreturn" horiz-adv-x="341" 
 />
    <glyph glyph-name="x" unicode="x" horiz-adv-x="1001" 
d="M281 543q-27 -1 -53 -1h-83q-18 0 -36.5 -6t-32.5 -18.5t-23 -32t-9 -45.5v-76h912v41q0 16 -0.5 30t-0.5 18q0 13 -5 29t-17 29.5t-31.5 22.5t-49.5 9h-133v-97h-438v97zM955 310v-52q0 -23 0.5 -52t0.5 -58t-10.5 -47.5t-26 -30t-33 -16t-31.5 -4.5q-14 -1 -29.5 -0.5
t-29.5 0.5h-32l-45 128h-439l-44 -128h-29h-34q-20 0 -45 1q-25 0 -41 9.5t-25.5 23t-13.5 29.5t-4 30v167h911zM163 247q-12 0 -21 -8.5t-9 -21.5t9 -21.5t21 -8.5q13 0 22 8.5t9 21.5t-9 21.5t-22 8.5zM316 123q-8 -26 -14 -48q-5 -19 -10.5 -37t-7.5 -25t-3 -15t1 -14.5
t9.5 -10.5t21.5 -4h37h67h81h80h64h36q23 0 34 12t2 38q-5 13 -9.5 30.5t-9.5 34.5q-5 19 -11 39h-368zM336 498v228q0 11 2.5 23t10 21.5t20.5 15.5t34 6h188q31 0 51.5 -14.5t20.5 -52.5v-227h-327z" />
    <glyph glyph-name="uniE600" unicode="&#xe600;" 
d="M973 -38l25 25h-870q-32 0 -54.5 23t-22.5 55v720l-25 -26h870q32 0 54.5 -22.5t22.5 -54.5v-65q0 -10 7.5 -17.5t18 -7.5t18 7.5t7.5 17.5v65q0 53 -37.5 91t-90.5 38h-870h-26v-26v-720q0 -54 37.5 -91.5t90.5 -37.5h870h26v26v332q0 11 -7.5 18.5t-18 7.5t-18 -7.5
t-7.5 -18.5v-332zM513 329q13 -9 27 -2l463 255q9 5 12 15.5t-2 20t-15.5 12.5t-19.5 -3l-463 -255l27 -1l-348 248q-9 7 -19.5 5t-16.5 -10.5t-4 -19t10 -16.5z" />
    <glyph glyph-name="uniE601" unicode="&#xe601;" 
d="M517 331q-37 0 -63.5 -26.5t-26.5 -63.5q0 -30 18 -54l1 -1q23 -27 24 -47v-51q0 -19 14 -33t33.5 -14t33 14t13.5 33v52v2q1 3 2 8q5 16 22 35q19 25 19 56q0 37 -26.5 63.5t-63.5 26.5zM556 211q-34 -40 -32 -71v-52q0 -6 -6.5 -6t-6.5 6v52q0 32 -34 72q-9 13 -9 29
q0 20 14.5 34.5t35 14.5t34.5 -14.5t14 -34.5q0 -17 -10 -30zM859 504h-50v130v3q-14 108 -95 180q-83 73 -193 73q-120 0 -205 -85t-85 -205v-96h-56q-29 0 -49 -20.5t-20 -49.5v-493q0 -28 20 -48.5t49 -20.5h425h2h255h2q29 0 49.5 20.5t20.5 48.5v493q0 29 -20.5 49.5
t-49.5 20.5zM888 -59q0 -11 -7.5 -19t-19.5 -9h-267h-2h-417q-12 0 -20.5 8.5t-8.5 19.5v493q0 12 8.5 20.5t20.5 8.5h76h3h3h189h1q53 0 94 27q7 5 9 13t-3 15t-13 9t-15 -3q-33 -22 -72 -20h-1h-175v96q0 103 73.5 176t176.5 73q95 0 166 -62q69 -62 82 -154v-148v-6l1 -1
q4 -15 19 -15h70q12 0 20.5 -8.5t8.5 -20.5v-493z" />
    <glyph glyph-name="uniE602" unicode="&#xe602;" 
d="M794 579q0 122 -86.5 209t-208.5 87t-208 -87t-86 -209t86 -209t208 -87t208.5 87t86.5 209zM256 579q0 101 71 172.5t172 71.5t172 -71.5t71 -172.5t-71 -172.5t-172 -71.5t-172 71.5t-71 172.5zM0 -102v-26h26h460h512h26v26q0 85 -41.5 165.5t-111 140t-164 95.5
t-195.5 36q-25 0 -49 -2q-7 -1 6 -9q17 -11 17 -19q8 1 13 -10.5t13 -11.5q91 0 176.5 -32t147.5 -85t99.5 -123.5t37.5 -144.5l25 25h-512h-460l25 -25q6 167 151 274q10 4 13.5 14t-1.5 20t-15 13t-19 -2q-83 -48 -131.5 -128t-48.5 -191z" />
    <glyph glyph-name="uniE603" unicode="&#xe603;" 
d="M749 -123h-471q-42 0 -71.5 29.5t-29.5 71.5v807q0 42 29.5 71.5t71.5 29.5h471q42 0 71.5 -29.5t29.5 -71.5v-807q0 -42 -29.5 -71.5t-71.5 -29.5zM262 834q-15 0 -25 -10t-10 -25v-844q0 -14 10 -24.5t25 -10.5h508q14 0 24.5 10.5t10.5 24.5v844q0 15 -10.5 25
t-24.5 10h-508zM513.5 -23q-27.5 0 -47.5 20t-20 48t20 47.5t47.5 19.5t47.5 -19.5t20 -47.5t-20 -48t-47.5 -20zM684 232h-335q-11 0 -19.5 8t-8.5 19v474q0 12 8.5 20t19.5 8h335q11 0 19 -8t8 -20v-474q0 -11 -8 -19t-19 -8zM369 275h295v442h-295v-442z" />
    <glyph glyph-name="uniE604" unicode="&#xe604;" horiz-adv-x="1025" 
d="M900 756q31 0 52.5 -22.5t21.5 -54.5v-687l25 25h-874q-31 0 -53 22.5t-22 54.5v687l-25 -25h875zM0 806v-25v-687q0 -53 36.5 -90t88.5 -38h874h25v26v687q0 53 -36.5 90t-87.5 36h-875zM515 455q10 0 17.5 7.5t7.5 18t-7.5 18t-17.5 7.5h-368q-10 0 -17.5 -7.5
t-7.5 -18t7.5 -18t17.5 -7.5h368zM515 292q10 0 17.5 7t7.5 17.5t-7.5 18t-17.5 7.5h-368q-10 0 -17.5 -7.5t-7.5 -18t7.5 -17.5t17.5 -7h368zM893 217h-272v322h272v-322zM857 504h-199v-251h199v251z" />
    <glyph glyph-name="uniE605" unicode="&#xe605;" 
d="M514 -126q-104 0 -198 40q-92 39 -162 110q-71 70 -109 162q-41 94 -41 198t41 198q38 92 108.5 162.5t162.5 109.5q95 40 198.5 40t198.5 -40q91 -39 162 -110q70 -70 109 -162q40 -94 40 -198q0 -86 -28 -167q-9 -23 -15.5 -34t-23.5 -33q-6 -8 -24 -28
q-17 -19 -38 -18q-12 1 -45 21l-356 252v396q0 8 6 13.5t14 5.5t13.5 -5.5t5.5 -13.5v-380l345 -240l4 -3q7 -4 12 -5q6 0 9 2l5 5l4 5q3 3 9 8l10 12q16 22 28 53q26 74 26 154q0 96 -37 183q-36 84 -101 149.5t-150 100.5q-87 37 -182.5 37t-183.5 -37
q-84 -35 -149.5 -100.5t-100.5 -149.5q-37 -87 -37 -183t37 -183q35 -85 100.5 -150t149.5 -101q88 -36 183 -36q110 0 198 37q45 18 85 26.5t60 4.5q20 -3 21 -18q1 -10 -5.5 -17.5t-18.5 -5.5q-14 2 -44.5 -4t-53.5 -12.5t-25 -7.5q-104 -43 -217 -43z" />
    <glyph glyph-name="uniE606" unicode="&#xe606;" 
d="M513 31q-67 0 -131 19t-113 49t-93 66t-75 72.5t-53.5 66.5t-33.5 48l-11 19q4 7 11.5 19.5t33.5 47.5t54.5 67.5t74.5 71.5t94 67t112 47.5t130 19.5t129.5 -18.5t113 -48.5t93.5 -66.5t75 -72.5t54 -66t34 -49l11 -19q-4 -7 -11.5 -19t-33 -47.5t-54 -67.5t-74 -71.5
t-93.5 -67.5t-112.5 -47.5t-131.5 -19.5zM513.5 660.5q-53.5 0.5 -107 -15.5t-96.5 -41.5t-82 -56t-67.5 -61.5t-49.5 -57t-32 -42l-11 -16l11 -17q7 -10 30.5 -40.5t49 -58t66 -61.5t82.5 -57.5t96.5 -39.5t109.5 -15q57 1 112.5 17.5t99 42t83 56.5t67.5 61t49 55.5
t32 41.5l10 15q-4 6 -11.5 16.5t-32.5 40.5t-52 57t-68.5 60.5t-83.5 57.5t-96.5 40.5t-108 17zM516 210q-64 0 -109.5 45.5t-45.5 109.5t45.5 109.5t109.5 45.5t109.5 -45.5t45.5 -109.5t-45.5 -109.5t-109.5 -45.5z" />
    <glyph glyph-name="uniE607" unicode="&#xe607;" 
d="M245 444q-32 -28 -31.5 -69t32.5 -69l483 -422q10 -10 24 -9t23 11.5t8 24.5t-11 23l-483 422q-10 9 -10 20t9 19l484 439q11 9 11.5 23t-9 24t-23 10.5t-23.5 -8.5z" />
    <glyph glyph-name="uniE608" unicode="&#xe608;" 
d="M478 60q19 -20 45 -20t44 21l270 309q6 7 5.5 15.5t-7 14.5t-15.5 5.5t-15 -7.5l-270 -309q-13 -14 -25 -1l-281 310q-6 7 -14.5 7.5t-15.5 -5.5t-7 -15t6 -15z" />
    <glyph glyph-name="uniE609" unicode="&#xe609;" 
d="M777 756q-162 26 -262 -108q-3 4 -7 10.5t-20.5 24.5t-35.5 32.5t-51.5 28.5t-68.5 19q-49 7 -97 -10t-87 -52t-61.5 -93.5t-17.5 -129.5q2 -50 28 -106h185l49 215l105 -260l73 196l76 -151h138q17 29 50 29q24 0 41.5 -17t17.5 -41.5t-17.5 -42t-41.5 -17.5
q-32 0 -49 27h-172l-32 74l-68 -201l-111 245l-40 -185l-15 68l-154 1q53 -82 139 -161q32 -29 94 -72.5t104 -70t46 -28.5q165 102 225 155q203 184 217 343q5 57 -8.5 106t-36 78.5t-50.5 51t-49 31t-36 11.5z" />
    <glyph glyph-name="uniE60A" unicode="&#xe60a;" 
d="M623 816h-46v20q0 23 -16.5 39t-39 16t-39 -16t-16.5 -39v-20h-46q-76 0 -130 -48t-54 -116v-500q0 -67 54 -115t130 -48h5l18 -57h52v-60h53v60h52l18 57h5q76 0 130 48t54 115v500q0 68 -54 116t-130 48zM751 152q0 -44 -37.5 -76t-90.5 -32h-203q-53 0 -90.5 32
t-37.5 76v500q0 45 37.5 77t90.5 32h203q53 0 90.5 -32t37.5 -77v-500zM351 173q0 -31 17 -51.5t52 -20.5h203q35 0 52.5 20.5t17.5 51.5v357h-342v-357zM522 447q75 -133 75 -174q0 -31 -22 -53t-53.5 -22t-53.5 22t-22 53q0 41 76 174z" />
    <glyph glyph-name="uniE60B" unicode="&#xe60b;" 
d="M634 90q0 -48 -34 -82t-82 -34t-82.5 34t-34.5 82q0 31 16 58t43 42l9 6l7 4v8v11v193h83v-193v-11v-8l7 -4l10 -6q27 -15 42.5 -42t15.5 -58zM735 95q0 -96 -56.5 -157.5t-160.5 -61.5q-91 0 -153.5 56t-62.5 153q0 127 100 192v501q0 50 32 81t84 31q54 0 85 -30.5
t28 -82.5v-501q104 -64 104 -181zM685 92q0 45 -22.5 83.5t-60.5 61.5l-13 7v15v276h-62v34h62v47h-62v34h62v48h-62v34h62v45q0 29 -20.5 49.5t-50 20.5t-50 -20.5t-20.5 -49.5v-518v-15l-13 -7q-39 -23 -61 -61.5t-22 -83.5q0 -69 48.5 -117.5t117.5 -48.5t118 48.5
t49 117.5z" />
    <glyph glyph-name="uniE60C" unicode="&#xe60c;" 
d="M474 734q0 -16 -11.5 -27.5t-27.5 -11.5t-27 11.5t-11 27.5t11 27t27 11t27.5 -11t11.5 -27zM597.5 832q-24.5 0 -42 -17.5t-17.5 -42t17.5 -42t42 -17.5t42 17.5t17.5 42t-17.5 42t-42 17.5zM556 646q0 -13 -9 -22t-21.5 -9t-21.5 9t-9 22t9 22t21.5 9t21.5 -9t9 -22z
M474 894q-13 0 -22 -9.5t-9 -22t9 -21.5t22 -9t22 9t9 21.5t-9 22t-22 9.5zM814 -8l-187 371v132h47v83h-330v-83h47v-132l-186 -371q-29 -49 -8.5 -84.5t77.5 -35.5h470q58 0 78 35.5t-8 84.5zM773.5 -64.5q-4.5 -7.5 -29.5 -7.5h-470q-25 0 -29.5 7.5t8.5 28.5l1 2l1 1
l186 371l6 12v13v126h125v-126v-13l6 -12l186 -371l1 -1l1 -2q12 -21 7.5 -28.5zM509 224q0 -16 -11 -27.5t-27 -11.5t-27.5 11.5t-11.5 27.5t11.5 27.5t27.5 11.5t27 -11.5t11 -27.5zM504 459q-9 0 -15.5 -6t-6.5 -15t6.5 -15.5t15.5 -6.5t15.5 6.5t6.5 15.5t-6.5 15
t-15.5 6zM525.5 347q-8.5 0 -15 -6.5t-6.5 -15.5t6.5 -15t15 -6t15 6t6.5 15t-6.5 15.5t-15 6.5zM615 145h-216l-91 -183h402zM410.5 -17q-8.5 0 -15 6t-6.5 15t6.5 15.5t15 6.5t15 -6.5t6.5 -15.5t-6.5 -15t-15 -6zM443 69q-9 0 -15.5 6t-6.5 15t6.5 15.5t15.5 6.5
t15.5 -6.5t6.5 -15.5t-6.5 -15t-15.5 -6zM509 4q-9 0 -15 6.5t-6 15.5t6 15t15 6t15.5 -6t6.5 -15t-6.5 -15.5t-15.5 -6.5z" />
    <glyph glyph-name="uniE60D" unicode="&#xe60d;" 
d="M461 410h25v25v218q0 101 -71 172t-172 71t-172 -71t-71 -172t71 -172t172 -71h218zM51 652.5q0 79.5 56.5 136t136 56.5t135.5 -56.5t56 -135.5v-218l26 26h-218q-79 0 -135.5 56t-56.5 135.5zM461 307l-26 26v-218q0 -79 -56 -135.5t-135.5 -56.5t-136 56.5t-56.5 136
t56.5 135.5t135.5 56h218zM0 115q0 -101 71 -172t172 -71t172 71t71 172v218v25h-25h-218q-101 0 -172 -71t-71 -172zM563 461l26 -26v218q0 79 56 135.5t135.5 56.5t136 -56.5t56.5 -136t-56.5 -135.5t-135.5 -56h-218zM1024 653q0 101 -71 172t-172 71t-172 -71t-71 -172
v-218v-25h25h218q101 0 172 71t71 172zM1024 115q0 101 -71 172t-172 71h-218h-25v-25v-218q0 -101 71 -172t172 -71q57 0 107 25q10 5 13.5 15t-1.5 19.5t-15 13t-19 -1.5q-40 -20 -85 -20q-80 0 -136 56.5t-56 135.5v218l-26 -26h218q79 0 135.5 -56t56.5 -136
q0 -28 -8 -54q-3 -10 2 -19.5t15 -12.5t19.5 2t12.5 15q10 34 10 69z" />
    <glyph glyph-name="uniE60E" unicode="&#xe60e;" horiz-adv-x="1094" 
d="M749 706q-10 0 -18 7.5t-13 18t-7.5 21t-2.5 17.5v126h2q9 0 17.5 -2t20 -9.5t28.5 -21.5t42 -37q28 -24 44.5 -41t24.5 -28.5t10.5 -20t2.5 -14.5v-16h-151zM1027 257q33 -33 49.5 -74.5t16.5 -85t-16.5 -85t-48.5 -74.5q-33 -33 -75 -49t-85 -16t-85 16t-75 49
q-32 33 -48.5 74.5t-16.5 85t16.5 85t49.5 74.5q32 33 74 49.5t85 16.5t85 -16.5t74 -49.5zM899 66h96q13 0 22 9.5t9 22.5t-9 22t-22 9h-96l-1 97q0 13 -9 22t-22 9t-22.5 -9t-9.5 -22v-96l-96 -1q-14 0 -23 -9t-9 -22t9 -22.5t23 -9.5l96 -1v-95q0 -13 9.5 -22.5
t22.5 -9.5t22 9.5t9 22.5zM576 129q-1 -8 -1 -15v-15q0 -46 13.5 -87.5t37.5 -76.5h-363q-20 0 -43 11.5t-42.5 30t-33 42t-13.5 48.5v697q0 22 10 45.5t27 42t38.5 31.5t45.5 13h391v-128q0 -19 6.5 -41.5t19 -41.5t33 -32t49.5 -13h149v-253q-9 1 -18 1.5t-18 0.5
q-76 0 -140 -36t-103 -96h-298q-26 0 -45 -19t-19 -45.5t19 -45t45 -18.5h253zM323 512q-26 0 -45 -18t-19 -45t19 -45.5t45 -18.5h384q26 0 45 18.5t19 45.5t-19 45t-45 18h-384z" />
    <glyph glyph-name="uniE60F" unicode="&#xe60f;" 
d="M864 820q25 0 48 -11.5t41 -30.5t29 -42.5t11 -47.5v-634q0 -27 -11.5 -50t-30.5 -40.5t-42.5 -27.5t-47.5 -10h-703q-24 0 -47 9.5t-40.5 26t-28.5 39t-11 48.5v646q0 25 11.5 47.5t30 40t43.5 27.5t52 10h696zM208 629q-14 0 -23 -9t-9 -23t9 -23.5t23 -9.5h300
q14 0 23 9.5t9 23.5t-9 23t-23 9h-300zM208 436q-14 0 -23 -9t-9 -23t9 -23t23 -9h257q14 0 23 9t9 23t-9 23t-23 9h-257zM444 179q13 0 22.5 9.5t9.5 23t-9.5 22.5t-22.5 9h-236q-14 0 -23 -9t-9 -22.5t9 -23t23 -9.5h236zM925 373l-172 195l-211 -195h129q1 -34 -3 -69
q-4 -29 -13.5 -65.5t-31 -69.5t-48 -56t-49.5 -37q-27 -17 -54 -28h247q5 9 12 20l13 26q8 17 19 41q13 30 20 71t11 78q4 43 5 89h126z" />
    <glyph glyph-name="uniE610" unicode="&#xe610;" horiz-adv-x="1026" 
d="M421 445l-165 -139v187l185 162l5 -6l168 -195l309 320l92 -112l-414 -432l-3 8zM929 190q19 0 37 -7.5t31 -20t20.5 -30t7.5 -37.5t-7.5 -37.5t-20.5 -30.5t-31 -20.5t-37 -7.5h-833q-20 0 -37.5 7.5t-30.5 20.5t-20.5 30.5t-7.5 37.5v640q0 20 7.5 38t20.5 30.5
t30.5 20t37.5 7.5t38 -7.5t30.5 -20t20.5 -30.5t8 -38v-545h736z" />
    <glyph glyph-name="uniE611" unicode="&#xe611;" 
d="M958 287q6 -31 -5.5 -62.5t-45 -62.5t-84.5 -55t-131.5 -38.5t-179.5 -14.5q-91 0 -169 14t-131.5 37.5t-89.5 53.5t-49.5 62.5t-6.5 63.5q7 26 27.5 41.5t42 26t28.5 22.5q5 11 14 25.5t15.5 27.5t11.5 28q6 17 17 73t17 71q16 45 42.5 78t60.5 57q32 21 72 35
q-6 -2 -6 4q0 12 19 30q33 31 81 31t80 -31q10 -9 13.5 -17t2.5 -11l-1 -4q40 -12 75.5 -35.5t61.5 -57.5t42 -79q5 -14 16.5 -69t16.5 -73q6 -16 12 -28.5t15 -28t15 -26.5q6 -12 30 -24t45.5 -27t25.5 -37zM667 11q2 0 0 -9t-11 -21.5t-24.5 -25t-47 -21.5t-71.5 -9
q-39 0 -69 9t-46 21.5t-26 25t-13 21.5t-2 9q78 -15 151 -15q35 0 74.5 3.5t62.5 7.5z" />
    <glyph glyph-name="uniE612" unicode="&#xe612;" 
d="M269 883q-10 9 -24 8.5t-23 -10.5t-8.5 -24t10.5 -23l484 -439q10 -8 10 -19t-10 -20l-483 -422q-10 -9 -11 -23t8 -24.5t22.5 -11.5t24.5 9l483 422q32 28 32.5 69t-31.5 69z" />
    <glyph glyph-name="uniE613" unicode="&#xe613;" horiz-adv-x="1026" 
d="M1007 431q8 -20 8.5 -50.5t-8.5 -59.5q-5 -16 -15 -21.5t-21 -5.5q-32 2 -63.5 -14.5t-45 -48t-6.5 -63t29 -54.5q5 -4 9 -11q9 -11 5 -29q-5 -23 -35.5 -53.5t-57.5 -32.5q-13 -2 -21 2.5t-17 11.5q-18 15 -49.5 28.5t-62.5 0.5q-32 -11 -49 -40.5t-17 -60.5
q0 -25 -18 -36.5t-56 -11.5t-63 12q-22 11 -18 33h-2q2 32 -13.5 63.5t-47 45t-66.5 4.5t-58 -34q-13 -16 -42 -7q-14 7 -28.5 18.5t-27 26t-22.5 29t-12 25.5q-5 18 20 39q18 18 28 46t-1 59q-7 21 -22.5 32t-33.5 18q-21 9 -43 11q-18 2 -27 14q-16 18 -15 61.5t15 66.5
q13 20 29 18q32 0 65.5 15.5t47 47t2.5 65.5t-36 56v3q-7 4 -7 17.5t5 24.5q11 25 37 50t48 29q11 2 17 -2.5t12 -10.5q25 -23 56.5 -31t63.5 4q15 6 27.5 19.5t21.5 29.5t13.5 28.5t4.5 18.5q0 18 9 27q11 12 30.5 15t38.5 3t36 -4.5t26 -6.5q11 -4 15.5 -15.5t4.5 -20.5
q-2 -31 13.5 -59.5t47 -42t64 -7.5t55.5 30q18 18 38 12q25 -12 52 -40t31 -59q0 -7 -4.5 -16t-8.5 -11q-25 -23 -33 -54.5t6 -62.5q11 -32 43.5 -49t64.5 -14q11 0 20 -4.5t14 -16.5zM518.5 168q42.5 0 82 17t67.5 45t45 66.5t17 83.5q0 42 -17 81.5t-45 67.5t-67.5 45
t-82 17t-81 -17t-66.5 -45t-45 -67.5t-17 -81.5q0 -45 17 -83.5t45 -66.5t66.5 -45t81 -17z" />
    <glyph glyph-name="uniE614" unicode="&#xe614;" horiz-adv-x="1246" 
d="M665 -126h-102v460h-460v99h460v457h102v-457h458v-99h-458v-460z" />
    <glyph glyph-name="uniE615" unicode="&#xe615;" 
d="M799 663h-76q1 -2 0.5 -9t-0.5 -9q0 -40 -29 -71t-64 -31h-191q-36 0 -64.5 31t-28.5 71q0 9 2 18h-80q-20 0 -33.5 -15t-13.5 -37v-682q0 -21 13.5 -36.5t33.5 -15.5h531q19 0 33 15.5t14 36.5v682q0 22 -14 37t-33 15zM769 -45h-473v533h473v-533v0zM611 739h-15h-7
l1 7v1v2q0 26 -16.5 44.5t-40 18.5t-40 -18.5t-16.5 -44.5v-1v-2v-7h-6h-15q-29 0 -49 -22.5t-20 -54t20 -54t49 -22.5h155q28 0 48.5 22.5t20.5 54t-20.5 54t-48.5 22.5zM533.5 734q-11.5 0 -20 9t-8.5 21.5t8.5 21.5t20 9t19.5 -9t8 -21.5t-8 -21.5t-19.5 -9zM675 161h-81
v-81h-121v81h-81v121h81v81h121v-81h81v-121z" />
    <glyph glyph-name="uniE616" unicode="&#xe616;" 
d="M753 894h-511q-31 0 -52 -21.5t-21 -51.5v-876q0 -30 21 -51.5t52 -21.5h511q30 0 51.5 21.5t21.5 51.5v876q0 30 -21.5 51.5t-51.5 21.5zM497 -55q-30 0 -51.5 21t-21.5 51.5t21.5 52t51.5 21.5t51.5 -21.5t21.5 -52t-21.5 -51.5t-51.5 -21zM716 164h-438v620h438v-620z
" />
    <glyph glyph-name="uniE617" unicode="&#xe617;" 
d="M658 262v9q26 19 45.5 44t31 55.5t18.5 55.5t10 63t3.5 59t0.5 60v17q0 125 -68.5 195.5t-189.5 70.5h-8q-116 0 -178 -68.5t-62 -197.5q0 -31 1 -50.5t4 -57.5t11 -67.5t21.5 -63.5t36 -63.5t53.5 -51.5v-7q-77 -12 -139.5 -35t-104 -62t-41.5 -87q0 -104 100 -155
t302 -51q100 0 176.5 12.5t121.5 32.5t73 48t38 55t10 58q0 38 -27 70.5t-70.5 54t-85 35.5t-83.5 22z" />
    <glyph glyph-name="uniE618" unicode="&#xe618;" 
d="M895 780q26 0 49 -11.5t40.5 -30.5t28.5 -42.5t11 -47.5v-495q0 -27 -11.5 -50t-30 -40.5t-42.5 -27.5t-48 -10h-758q-24 0 -47 9.5t-40.5 26t-28.5 39t-11 48.5v507q0 25 11.5 47.5t30 40t43.5 27.5t52 10h751zM172 620q-14 0 -23 -9t-9 -23t9 -23.5t23 -9.5h300
q14 0 23 9.5t9 23.5t-9 23t-23 9h-300zM172 427q-14 0 -23 -9t-9 -23t9 -23t23 -9h257q14 0 23 9t9 23t-9 23t-23 9h-257zM408 170q13 0 22.5 9.5t9.5 23t-9.5 22.5t-22.5 9h-236q-14 0 -23 -9t-9 -22.5t9 -23t23 -9.5h236zM900 606q0 5 -4 8.5t-9 3.5h-301q-5 0 -8.5 -3.5
t-3.5 -8.5v-413q0 -5 3.5 -8t8.5 -3h301q5 0 9 3t4 8v413z" />
    <glyph glyph-name="uniE619" unicode="&#xe619;" 
d="M740 249q-43 0 -81 -20t-62 -55l-138 92q28 50 28 108q0 60 -29 111l144 96q25 -31 61 -48.5t77 -17.5q73 0 124.5 51.5t51.5 124t-51.5 124t-124.5 51.5t-124.5 -51.5t-51.5 -124.5q0 -39 17 -74l-147 -98q-31 36 -74 56t-92 20q-91 0 -155 -64.5t-64 -155t64 -155
t155 -64.5q49 0 93 20.5t74 57.5l142 -95q-13 -31 -13 -65q0 -73 51.5 -124.5t124.5 -51.5t124.5 51.5t51.5 124.5t-51.5 124.5t-124.5 51.5z" />
    <glyph glyph-name="uniE61A" unicode="&#xe61a;" 
d="M231.5 181.5q7.5 -7.5 17.5 -7.5t18 8l128 172l143 -101q7 -8 18 -7q11 -1 18 7l211 234q7 7 7 17.5t-7 17.5t-17.5 7t-17.5 -7l-198 -220l-143 102q-7 7 -19 7q-11 0 -19 -7l-139 -187q-8 -8 -8 -18t7.5 -17.5zM83 623v-506q0 -35 25 -60t60 -25h668q17 0 23.5 11.5
t-0.5 22.5t-23 11h-420h-243q-19 0 -32 13t-13 32v500q0 19 -11.5 25.5t-22.5 -1t-11 -23.5z" />
    <glyph glyph-name="uniE61B" unicode="&#xe61b;" 
d="M941 688q-26 26 -62 26h-165q-8 70 -58 120q-60 59 -144 59t-144 -59q-50 -50 -58 -120h-165v0q-36 0 -62 -26t-26 -62v-666q0 -37 26 -62.5t62 -25.5h734q36 0 62 26t26 62v666q0 36 -26 62zM838 391q15 -4 6 -24q-9 -19 -26 -16q-12 2 -9 21q3 23 24 20q2 0 5 -1z
M805 425q17 -5 9 -28q-9 -24 -30 -23h-4q-14 3 -12 26q3 24 23 26q7 1 14 -1zM717 382q-17 4 -15 31q3 32 27 39q11 4 24 0q21 -7 10 -36q-10 -29 -34 -34q-6 -1 -12 0zM402 799.5q46 45.5 110 45.5t110 -45v0q46 -46 46 -110.5t-46 -110t-110 -45.5t-110 45.5t-46 110
t46 110zM283 452q36 10 48 -25q9 -27 -4 -41q-4 -3 -8 -4q-25 -4 -42 25q-16 28 0 41q3 3 6 4zM231 425q27 8 36 -18q6 -22 -6 -31q-2 -1 -5 -2q-21 -4 -32 20q-11 23 5 30q1 1 2 1zM198 391q23 7 29 -17q3 -19 -9 -23q-18 -3 -27 18q-7 18 7 22zM169 293q-13 -3 -19 13
q-6 14 5 17q17 5 21 -13q3 -15 -7 -17zM188 324q-17 -3 -24 16q-5 16 6 19q20 6 25 -14q3 -17 -7 -21zM424 -1q-2 -35 -33 -48.5t-56 4.5q-16 11 -27.5 31t-25 57.5t-17.5 47.5q-11 25 -49 84q-44 69 4 122q46 52 98 57q33 3 50 -18.5t14 -58.5q-1 -14 -10 -50.5t-5 -59.5
q3 -21 18.5 -48.5t28 -57.5t10.5 -62zM346 523q-60 60 -68 143h32v0q8 -70 58 -120q60 -60 144 -60t144 60q50 50 58 120h32q-8 -83 -68 -143q-69 -69 -166 -69t-166 69zM820 175q-38 -59 -49 -84q-5 -13 -14.5 -38t-15.5 -40.5t-16.5 -32t-23.5 -25.5q-25 -18 -56 -4.5
t-33 48.5q-2 32 10.5 62t28 57.5t18.5 48.5q4 23 -5 59.5t-10 50.5q-3 37 14 58.5t50 18.5q52 -5 98 -57q48 -53 4 -122zM848 324q-10 3 -8 19q6 21 26 16q13 -4 5 -21q-8 -16 -23 -14zM867 293q-10 2 -7 16q3 19 21 14q12 -4 4 -19q-7 -13 -18 -11zM512 642q13 0 22.5 9
t9.5 23q0 8 -4 16l44 76q3 6 1.5 12.5t-7.5 9.5t-12 1.5t-10 -7.5l-44 -76v0q-13 0 -22.5 -9.5t-9.5 -23t9.5 -22.5t22.5 -9z" />
    <glyph glyph-name="uniE61C" unicode="&#xe61c;" 
d="M851 -86v-40h-199v40h77v941h-79v40h199v-40h-80v-941h82zM596 554q0 45 -31 83.5t-73 38.5h-1h-55q-8 0 -33.5 -7.5t-44 -7.5t-43 7.5t-33.5 7.5h-55h-1q-43 0 -73.5 -30.5t-30.5 -73.5v-20v17v-318q0 -10 6.5 -17t16.5 -7h36q10 0 16.5 7t6.5 17v250h26v-248v-18v-338
q0 -10 7 -17t16 -7h70q10 0 16.5 7t6.5 17v314h26v-314q0 -10 6.5 -17t16.5 -7h69q10 0 17 7t7 17v338v18v248h25v-250q0 -10 7 -17t16 -7h37q9 0 16 7t7 17v318v1v-16v0zM251 785.5q0 44.5 31.5 76t76 31.5t76 -31.5t31.5 -76t-31.5 -76t-76 -31.5t-76 31.5t-31.5 76z" />
    <glyph glyph-name="uniE61D" unicode="&#xe61d;" 
d="M918 543q0 69 -36 133.5t-92.5 110t-128 73t-142.5 27.5v0v0v0q-70 0 -141.5 -27.5t-128 -73t-92.5 -110t-36 -133.5q3 -69 25.5 -142t53 -132t73.5 -120.5t77.5 -102.5t75.5 -83t57.5 -57t32.5 -29l3 -3v0v0q1 0 3 3q17 14 33.5 29t57.5 57t75.5 83t77.5 102.5
t73.5 120.5t53 132t25.5 142zM372 548q0 61 43 104t104 44q61 -1 104 -44t43 -104t-43 -104.5t-104 -43.5t-104 43.5t-43 104.5z" />
    <glyph glyph-name="uniE61E" unicode="&#xe61e;" horiz-adv-x="1025" 
d="M800 -108h-9v1q-73 5 -157 48l-61 34q-52 28 -130 94.5t-113 100.5l-57 58l-13 14q-87 94 -150 197q-94 155 -88 263q5 80 66 129q64 51 120 44q59 -8 116 -85q2 -2 8 -11q19 -25 28 -38.5t20 -33t15 -35.5q16 -61 -39 -115l-1 -2q-11 -10 -11 -32q0 -31 24 -72
q32 -58 106 -129q100 -94 166 -104q28 -4 40 7v1v-1q48 55 120 36q50 -13 124 -69q58 -44 73 -89q16 -51 -17 -108q-4 -8 -12.5 -10t-16 2t-10 12.5t2.5 16.5q23 41 13 73q-11 34 -59 70q-67 50 -109 61q-47 13 -77 -22q-18 -21 -53 -23q-86 -4 -213 117q-148 140 -144 236
q2 38 25 59q15 16 22 30.5t8 27.5t-8 32t-19.5 34t-31.5 43q-4 6 -8 11q-46 63 -88 68q-38 5 -88 -35q-46 -37 -50 -99q-6 -95 82 -238q67 -111 157 -203l3 -3q28 -29 64 -64t106.5 -94.5t116.5 -84.5l61 -34q75 -39 140 -44q18 0 37 3q7 1 22 4q65 12 114 14q8 0 14.5 -5.5
t7 -14.5t-5.5 -15.5t-15 -6.5q-45 -2 -107 -14q-16 -2 -23 -4q-18 -3 -38 -3z" />
    <glyph glyph-name="uniE61F" unicode="&#xe61f;" 
d="M317 604q0 81 57.5 138.5t138.5 57.5t138.5 -57.5t57.5 -138.5t-57.5 -138.5t-138.5 -57.5t-138.5 57.5t-57.5 138.5zM944 159v-207h-139v76h-46v-76h-476v76h-46v-76h-158q-1 209 0 212q3 77 59 132t132 55h103q16 0 61 -13.5t79 -13.5t80.5 13.5t59.5 13.5h100
q79 0 135 -56.5t56 -135.5zM744 182h-62v62h-61v-62h-62v-61h62v-62h61v62h62v61z" />
    <glyph glyph-name="uniE620" unicode="&#xe620;" 
d="M529 858q-96 0 -177.5 -47.5t-128.5 -129t-47 -177.5q0 -54 38 -137.5t84.5 -155t107.5 -151t85 -108t38 -44.5q14 16 38 44.5t85 108t107.5 151t85 155t38.5 137.5q0 96 -47.5 177.5t-129 129t-177.5 47.5zM526.5 263q-101.5 0 -173.5 72t-72 174t72 174t173.5 72
t173.5 -72t72 -174t-72 -174t-173.5 -72zM660 453h-75v-75h-112v75h-74v111h74v75h112v-75h75v-111z" />
    <glyph glyph-name="uniE621" unicode="&#xe621;" 
d="M606 808h-16h-7v8v1v2q0 29 -18 49t-43.5 20t-44 -20t-18.5 -49v-2l1 -1v-8h-7h-17q-31 0 -53.5 -25t-22.5 -59.5t22.5 -59.5t53.5 -25h170q32 0 54 25t22 59.5t-22 59.5t-54 25zM521.5 802q-12.5 0 -21.5 10t-9 24t9 24t21.5 10t21.5 -10t9 -24t-9 -24t-21.5 -10z
M813 743h-67q2 -10 2 -19q0 -25 -6.5 -46.5t-21 -43t-44 -34t-70.5 -13.5h-170q-39 1 -68 13.5t-44 33.5t-22 43.5t-7 46.5q0 9 2 19h-67q-22 0 -37 -16.5t-15 -40.5v-749q0 -24 15 -40.5t37 -16.5h583q21 0 36 16.5t15 40.5v749q0 24 -15 40.5t-36 16.5zM769 3h-495v502
h495v-502zM677 184h-86v-86h-130v86h-86v129h86v87h130v-87h86v-129z" />
    <glyph glyph-name="uniE622" unicode="&#xe622;" 
d="M35 384v346q0 69 44 113t112 44h430q7 0 9.5 -3t2.5 -10v-26q0 -12 -12 -12q-366 0 -429 1q-45 0 -76.5 -30t-30.5 -78q1 -346 0 -693q-1 -47 30.5 -77t76.5 -30q80 1 634 1q48 0 77 29t29 77v484q0 14 13 14h13h12q12 0 12 -13v-161v-324q0 -69 -44 -113t-114 -44h-633
q-68 0 -112 44t-44 112v349zM333 309q-6 -7 1 -14q75 -71 114 -109q8 -8 17 1q66 68 290 295l126 128l-130 123q0 -1 -73 -75t-180.5 -183t-164.5 -166zM973 744q-2 19 -12.5 33.5t-29.5 30.5q-23 21 -53.5 20.5t-53.5 -22.5q-6 -6 -17.5 -18t-17.5 -17q-7 -6 0 -12
q51 -49 117 -112q6 -6 12 0t18 18.5t18 18.5q18 20 20 52q-1 7 -1 8zM425 146q-11 11 -130 123q-19 -61 -61 -189q13 4 83.5 28.5t107.5 37.5z" />
    <glyph glyph-name="uniE623" unicode="&#xe623;" 
d="M225 -117q112 157 179 293q-8 0 -14 1q-53 6 -81 56q-25 47 -10 94q19 62 92 67q36 3 54 -12.5t17.5 -46t-11.5 -66.5t-32 -82q76 11 162 116q68 84 111 215q45 138 35 230l9 1q11 -94 -35 -234q-43 -133 -112 -218q-92 -113 -175 -121q-65 -136 -181 -298zM409 186
q98 206 -17 198q-66 -5 -84 -60q-14 -43 10 -86q25 -45 73 -51q8 -1 18 -1zM653 688l76 108l90 -104l7 6l-93 109l-4 5l-4 -5l-80 -113z" />
    <glyph glyph-name="uniE624" unicode="&#xe624;" 
d="M31 571q78 -31 265 -107q10 -4 10.5 -14t-10.5 -14q-231 -70 -241 -74q-8 -2 -13.5 4t-4 14t9.5 10q121 37 241 74v-28q-35 14 -125 51t-140 57q-8 3 -9 11.5t4 14t13 1.5zM645 361v-18q0 -23 -0.5 -32t-6 -18.5t-18 -12.5t-35.5 -3q-51 -1 -67 35q-21 -31 -57 -32
q-22 -1 -39 8t-25 21t-13 27t-5.5 21.5t-0.5 10.5h24q0 -2 0.5 -7t3.5 -16t9 -20t17.5 -15.5t27.5 -5.5q18 0 31 13.5t16.5 24t4.5 20.5q0 1 1 2v0v1l23 -4v-4q-2 -5 -0.5 -14.5t4.5 -18.5t14.5 -16t29.5 -7q27 0 32.5 8t4.5 34v18h24zM584 287q4 -19 1.5 -34.5t-4 -25.5
t-7.5 -18.5t-9.5 -12.5t-9 -7.5t-7 -4t-2.5 -0.5l-7 23q2 0 3.5 1t7 6t7.5 13t5 22.5t-1 34.5zM494 207h49v-24h-49v24zM494 183q-21 0 -34 12t-18 26t-5.5 33t0 26t1.5 12l24 -4q-1 -6 -1.5 -14.5t0 -26t9 -29t24.5 -11.5v-24zM251 275l-11 -35l-9 2l10 36zM82 233l21 73
l9 -2l-21 -73zM164 318l-21 -101l-9 2l21 101zM209 292l-13 -66l-10 1l14 67zM840 297l-9 -38l-9 2l9 39zM889 317l-18 -79l-10 2l18 79zM942 323l-19 -91l-10 2l20 91zM987 295l-11 -72l-10 1l11 72zM38 455h252v-10h-252v10zM1000 550q-43 -18 -265 -108v28
q161 -49 241 -74q9 -2 10.5 -10t-4 -14t-13.5 -3q-47 14 -135.5 41t-105.5 32q-11 4 -10.5 14t10.5 14q69 29 265 107q8 4 13 -1.5t3.5 -14t-9.5 -11.5zM733 461h253v-9h-253v9z" />
    <glyph glyph-name="uniE625" unicode="&#xe625;" 
d="M746 572v-1v-320q0 -10 -6.5 -17t-16.5 -7h-36q-10 0 -17 7t-7 17v252h-25v-250v-18v-340q0 -9 -7 -16t-17 -7h-70q-9 0 -16 7t-7 16v316h-25v-316q0 -9 -7 -16t-17 -7h-70q-9 0 -16 7t-7 16v340v18v250h-26v-252q0 -10 -6.5 -17t-16.5 -7h-37q-9 0 -16 7t-7 17v320v-2
v-5v-4v-4v-2v19q0 43 30.5 74t73.5 31h2h55q9 0 33.5 -7.5t43.5 -7.5t44.5 7.5t32.5 7.5h55h1h1q42 0 73 -38.5t31 -83.5q0 -1 0 4v8v4zM508 677q45 0 76.5 31.5t31.5 76.5t-31.5 76.5t-76.5 31.5t-76.5 -31.5t-31.5 -76.5t31.5 -76.5t76.5 -31.5z" />
    <glyph glyph-name="uniE626" unicode="&#xe626;" 
d="M128 -33q-32 0 -54.5 22.5t-22.5 55.5v700l-25 -26h870q32 0 54.5 -23t22.5 -55v-584q0 -10 7.5 -18t18 -8t18 8t7.5 18v584q0 54 -37.5 92t-90.5 38h-870q-11 0 -18.5 -7.5t-7.5 -18.5v-700q0 -54 37.5 -92t90.5 -38h755q11 0 18.5 7.5t7.5 18t-7.5 18.5t-18.5 8h-755z
M282 641q0 -11 7.5 -18.5t18 -7.5t18 7.5t7.5 18.5v195q0 10 -7.5 18t-18 8t-18 -8t-7.5 -18v-195zM717 654q0 -11 7.5 -18.5t18 -7.5t18 7.5t7.5 18.5v195q0 10 -7.5 18t-18 8t-18 -8t-7.5 -18v-195zM333 485q10 0 17.5 8t7.5 18.5t-7.5 18t-17.5 7.5h-141
q-11 0 -18.5 -7.5t-7.5 -18t7.5 -18.5t18.5 -8h141zM614 485q11 0 18.5 8t7.5 18.5t-7.5 18t-18.5 7.5h-140q-11 0 -18.5 -7.5t-7.5 -18t7.5 -18.5t18.5 -8h140zM870 485q11 0 18.5 8t7.5 18.5t-7.5 18t-18.5 7.5h-140q-11 0 -18.5 -7.5t-7.5 -18t7.5 -18.5t18.5 -8h140z
M333 330q10 0 17.5 7.5t7.5 18t-7.5 18.5t-17.5 8h-141q-11 0 -18.5 -8t-7.5 -18.5t7.5 -18t18.5 -7.5h141zM614 330q11 0 18.5 7.5t7.5 18t-7.5 18.5t-18.5 8h-140q-11 0 -18.5 -8t-7.5 -18.5t7.5 -18t18.5 -7.5h140zM870 330q11 0 18.5 7.5t7.5 18t-7.5 18.5t-18.5 8h-140
q-11 0 -18.5 -8t-7.5 -18.5t7.5 -18t18.5 -7.5h140zM333 174q10 0 17.5 7.5t7.5 18.5t-7.5 18.5t-17.5 7.5h-141q-11 0 -18.5 -7.5t-7.5 -18.5t7.5 -18.5t18.5 -7.5h141zM614 174q11 0 18.5 7.5t7.5 18.5t-7.5 18.5t-18.5 7.5h-140q-11 0 -18.5 -7.5t-7.5 -18.5t7.5 -18.5
t18.5 -7.5h140zM870 174q11 0 18.5 7.5t7.5 18.5t-7.5 18.5t-18.5 7.5h-140q-11 0 -18.5 -7.5t-7.5 -18.5t7.5 -18.5t18.5 -7.5h140z" />
    <glyph glyph-name="uniE627" unicode="&#xe627;" 
d="M848 430q-10 10 -24.5 10t-24.5 -10l-251 -251v606q0 14 -10 24t-24.5 10t-24.5 -10t-10 -24v-606l-251 251q-10 10 -24.5 10t-24.5 -10t-10 -24t10 -24l310 -310q5 -5 12 -8q6 -3 13 -3t13 3t11 8l310 310q10 10 10 24t-10 24zM876 -6q0 -14 -9 -23.5t-21 -9.5h-664
q-12 0 -21 9.5t-9 23.5t9 23.5t21 9.5h664q12 0 21 -9.5t9 -23.5z" />
    <glyph glyph-name="uniE628" unicode="&#xe628;" 
d="M801 470h-70v-33h67v-190h17v190h101v-190h17v190h59v33h-191zM32 470v-33h59v-190h17v190h92v-190h17v190h76v33h-191h-70zM551 266q-11 0 -19.5 8.5t-12.5 18t-6.5 22.5t-2.5 18v8l-26 1q0 -3 -0.5 -8t-4 -18t-8 -23t-13 -18.5t-19.5 -8.5t-20 8.5t-13.5 18.5t-8.5 23
t-4.5 18.5t-1.5 8.5l-25 -3q1 -4 2 -11t6 -24t12.5 -30t21.5 -23.5t31 -10.5q37 0 56 44q18 -44 56 -44q18 0 32 11t20 24t10 30t4.5 24t0.5 11h-25q0 -3 -0.5 -7.5t-3 -18t-6.5 -23t-12.5 -18t-19.5 -8.5z" />
    <glyph glyph-name="uniE629" unicode="&#xe629;" 
d="M251 700q-18 0 -27.5 6.5t-12.5 15.5q-6 11 -6 24v85q0 25 10 37t22 19q14 6 31 6h502q16 0 31 -6q11 -7 21 -19t10 -37v-85q0 -13 -5 -24q-4 -9 -12.5 -15.5t-26.5 -6.5h-537zM926 -23q0 -29 -10 -52q-9 -20 -28 -35.5t-54 -15.5h-630q-36 0 -54.5 15.5t-27.5 35.5
q-10 23 -11 52v485q0 42 15.5 60.5t28.5 31.5l92 85h561l74 -85q13 -13 28.5 -31.5t15.5 -60.5v-485zM724 311h-136v138h-139v-138h-136v-139h136v-136h139v136h136v139z" />
    <glyph glyph-name="uniE62A" unicode="&#xe62a;" horiz-adv-x="1069" 
d="M746 706q-11 0 -19 7.5t-13 18t-7.5 21t-2.5 17.5v126h2q9 0 17.5 -2t20 -9.5t28.5 -21.5t42 -36q28 -25 44.5 -42t25 -28.5t10.5 -20t2 -14.5v-16h-150zM1064 225q3 -9 4 -21t-10 -23q-5 -5 -9.5 -10t-7.5 -8q-4 -4 -7 -6l-87 86q6 5 14 12t13 11q12 12 26.5 10.5
t23.5 -6.5q10 -6 22 -18.5t18 -26.5zM703 130q23 0 38 12l-198 -207h-282q-20 0 -43 11.5t-43 30t-33 42.5t-13 49v696q0 22 9.5 45.5t26.5 42t38.5 31.5t44.5 13h392v-128q0 -19 6 -41.5t19 -41.5t33 -31.5t49 -12.5h149v-339l-140 -145q11 16 11 36q0 26 -18.5 45
t-45.5 19h-383q-27 0 -45 -19t-18 -45.5t18 -44.5t45 -18h383zM320 513q-27 0 -45 -19t-18 -45.5t18 -45t45 -18.5h383q27 0 45.5 18.5t18.5 45t-18.5 45.5t-45.5 19h-383zM705 1l13 13l26 26q15 15 33.5 34t36.5 37q44 44 100 98l85 -86l-99 -99l-36 -37l-34 -33
q-14 -15 -24 -25l-11 -11q-5 -4 -11 -8.5t-12.5 -7.5t-19 -8t-26 -9t-25.5 -7t-18 -4q-13 -2 -17 3t-2 17q1 7 4 19t8 25q4 13 7 24q4 11 6 15q6 14 16 24z" />
    <glyph glyph-name="uniE62B" unicode="&#xe62b;" 
d="M1010 457l-432 339q-28 22 -66 22t-66 -22l-429 -339q-11 -9 -12.5 -23t7 -25t22.5 -12.5t25 7.5l14 11v-410q0 -42 36 -72t78 -30h677q40 0 64.5 28t24.5 74v411l15 -12q9 -8 21 -8q17 0 27 13q8 11 6.5 25t-12.5 23zM614 41v-70h-67h-68h-68v70v119q0 33 26.5 57.5
t75.5 24.5t75 -24.5t26 -57.5v-119z" />
    <glyph glyph-name="uniE62C" unicode="&#xe62c;" 
d="M517 231v7q24 18 42 39.5t28.5 48.5t17 49t9 55.5t3 52t0.5 52.5v16q0 109 -62.5 171t-173.5 62h-7q-106 0 -163 -60.5t-57 -172.5q0 -28 1 -45t3.5 -50.5t10 -59.5t19.5 -56t33 -56t49 -46v-6q-70 -10 -127.5 -30.5t-95 -55t-37.5 -76.5q0 -181 368 -181q91 0 161 11
t111 28.5t67 42.5t35 48.5t9 50.5q0 34 -24.5 62.5t-64.5 47.5t-78 31.5t-77 19.5zM977 104q-15 0 -25.5 10t-10.5 25q0 14 -32 37.5t-85.5 46t-103.5 28.5q-14 1 -23 11.5t-9 23.5v74q0 17 14 28q45 37 75.5 107t30.5 138q0 44 -13.5 75t-37 46t-48.5 21.5t-54 6.5
q-15 0 -25.5 10.5t-10.5 25t10.5 25t25.5 10.5q104 0 164.5 -59t60.5 -161q0 -79 -33.5 -159.5t-86.5 -129.5v-28q55 -11 111 -36t98.5 -63.5t42.5 -77.5q0 -15 -10 -25t-25 -11v1z" />
    <glyph glyph-name="uniE62D" unicode="&#xe62d;" 
d="M515 590v-1v-300q0 -10 -6.5 -16t-15.5 -6h-34q-9 0 -15.5 6t-6.5 16v236h-24v-234v-18v-378q0 -9 -6 -15.5t-15 -6.5h-66q-9 0 -15.5 6.5t-6.5 15.5v357h-24v-357q0 -9 -6.5 -15.5t-15.5 -6.5h-65q-9 0 -15.5 6.5t-6.5 15.5v378v18v234h-24v-236q0 -10 -6.5 -16
t-15.5 -6h-34q-9 0 -15.5 6t-6.5 16v300v-2v-14v18q0 40 28.5 69t69.5 29h1h52q8 0 31 -7t41 -7t42 7t30 7h52h1v0q40 0 69 -36t29 -79v4v8v4zM292 688q42 0 71.5 30t29.5 72t-29.5 71.5t-71.5 29.5t-71.5 -29.5t-29.5 -71.5t29.5 -72t71.5 -30zM966 423v0v-231q0 -7 -5 -12
t-12 -5h-26q-7 0 -12 5t-5 12v181h-19v-179v-14v-291q0 -7 -5 -12t-12 -5h-50q-7 0 -12 5t-5 12v274h-18v-274q0 -7 -5 -12t-12 -5h-51q-7 0 -11.5 5t-4.5 12v291v14v179h-19v-181q0 -7 -5 -12t-12 -5h-26q-7 0 -12 5t-5 12v231v-1v-11v13q0 32 22 54t53 22h2h39
q7 0 24.5 -5.5t31 -5.5t32 5.5t23.5 5.5h40h1v0q31 0 53.5 -28t22.5 -60v2v6v3zM794 499q32 0 55 23t23 55.5t-23 55t-55 22.5t-55 -22.5t-23 -55t23 -55.5t55 -23z" />
    <glyph glyph-name="uniE62E" unicode="&#xe62e;" 
d="M711 875q0 6 -4.5 10t-9.5 4h-376q-6 0 -10 -4.5t-4 -9.5v-72q0 -6 4 -10t10 -4h33v-399q-3 -130 0 -240v-121q0 -64 45.5 -109.5t109.5 -45.5t109.5 45.5t45.5 109.5v356v5v15l-1 384h34q5 0 9.5 4t4.5 10v72zM397 405v384h222l1 -98h-91v-49h91v-83h-90v-60h90v-94
h-223z" />
    <glyph glyph-name="uniE62F" unicode="&#xe62f;" 
d="M588 -7h-353q-34 0 -55 20t-20 51q1 22 20 42.5t41 20.5q66 2 66 3q13 1 24.5 14t13.5 27q6 29 -9.5 50t-46.5 22q-3 0 -69 1.5t-70 -0.5q-79 -3 -102 14q-15 11 -21.5 31.5t-0.5 38.5q8 27 20 38t32 11h86h85q29 0 53.5 19.5t30.5 48.5q4 17 -13 39t-43 33
q-18 7 -27 11.5t-21 14t-18 22.5q-8 17 -3.5 36t19.5 30q29 20 63 20h622q25 0 41 -14.5t19 -35.5q7 -41 -13 -63q-18 -21 -54 -22q-2 0 -14.5 -0.5t-16.5 -1t-13 -1.5t-14.5 -4t-10.5 -7q-27 -24 -27 -50q0 -6 0.5 -10t1 -8.5t1 -6t2 -5.5t2.5 -5.5t4 -7.5t4 -9
q5 -8 18.5 -20.5t20.5 -12.5q90 1 110 0q25 0 44.5 -15.5t22.5 -39.5q4 -34 -8.5 -53.5t-32.5 -23.5q-4 0 -52 -2q-35 -1 -38 -2q-41 -9 -42 -56q0 -26 19 -41.5t40 -15.5h16h15q24 0 45 -15.5t23 -37.5q3 -27 -7 -42.5t-31 -26.5q-5 -3 -24 -3h-355z" />
    <glyph glyph-name="uniE630" unicode="&#xe630;" 
d="M868 82.5q0 -22.5 -17.5 -38.5t-41.5 -16h-386q-105 0 -194 47.5t-141 129t-52 177.5q0 95 51 175.5t137 128.5l61 -94q-59 -32 -94.5 -88t-35.5 -122q0 -101 78.5 -173t188.5 -72h387q24 0 41.5 -16t17.5 -38.5zM439 510l197 133l-124 185q-17 25 -47.5 31t-55.5 -11
l-74 -50q-26 -17 -32 -47t11 -56zM694 556q17 -25 11 -55.5t-31 -47.5l-74 -49q-26 -18 -56 -12t-47 32l-25 37l197 132zM868 265q0 25 -17.5 42.5t-41.5 17.5h-297q-25 0 -42.5 -17.5t-17.5 -42.5q0 -24 17.5 -41.5t42.5 -17.5h297q24 0 41.5 17.5t17.5 41.5zM987 -32
q0 -24 -17.5 -41.5t-41.5 -17.5h-654q-25 0 -42 17.5t-17 41.5q0 25 17 42.5t42 17.5h654q24 0 41.5 -17.5t17.5 -42.5z" />
    <glyph glyph-name="uniE631" unicode="&#xe631;" 
d="M543 126h-117v57q0 70 29 121q27 50 100 107q71 55 101.5 102.5t30.5 109.5q0 67 -47.5 109.5t-128.5 42.5q-127 0 -224 -97v137q112 70 243 70q130 0 207.5 -68.5t77.5 -179.5q0 -78 -36 -141q-36 -64 -121 -134q-68 -57 -91.5 -90.5t-23.5 -93.5v-52zM488 71
q39 0 67 -27.5t28 -66.5q0 -40 -28 -67t-67 -27q-38 0 -66 26.5t-28 67.5q0 40 28 67t66 27z" />
    <glyph glyph-name="uniE632" unicode="&#xe632;" horiz-adv-x="1027" 
d="M310 890l610 -506l-610 -507v1013z" />
    <glyph glyph-name="uniE633" unicode="&#xe633;" horiz-adv-x="1027" 
d="M729 890l-610 -506l610 -507v1013z" />
    <glyph glyph-name="uniE634" unicode="&#xe634;" 
d="M960 527h-884q-13 0 -22 9t-9 21q0 13 9 22t22 9h884q12 0 21 -9t9 -22q0 -12 -9 -21t-21 -9zM990 376q0 13 -9 22t-21 9h-884q-13 0 -22 -9t-9 -22q0 -12 9 -21t22 -9h884q12 0 21 9t9 21zM960 171h-884q-13 0 -22 9t-9 22q0 12 9 21t22 9h884q12 0 21 -9t9 -21
q0 -13 -9 -22t-21 -9z" />
    <glyph glyph-name="uniE635" unicode="&#xe635;" horiz-adv-x="1630" 
d="M1152 302l-144 128q-8 8 -8 18.5t8 19t18.5 8.5t18.5 -9l123 -112l112 123q8 8 18.5 8t18.5 -8t8 -18.5t-8 -18.5l-128 -145q-9 -2 -21 0t-16 6zM334 280q-10 0 -16 6q-8 8 -8 18.5t8 18.5l129 144q10 11 16 11q16 0 21 -5l144 -128q8 -8 8 -19t-8 -19t-18.5 -8t-18.5 8
l-123 113l-112 -123q-15 -17 -22 -17zM1168 307q-12 0 -19.5 10t-7.5 22q8 65 -7.5 129.5t-51.5 116.5q-86 113 -219 128q-64 8 -128.5 -7.5t-116.5 -50.5q-9 -8 -19 -6t-19 11q-7 9 -5 18.5t10 18.5q61 45 134.5 63.5t149.5 6.5t141.5 -51t109.5 -99q44 -61 62.5 -134.5
t6.5 -148.5q4 -11 -4 -19t-17 -8zM815 3q-37 0 -59 5q-76 12 -141.5 51t-109.5 99t-62.5 133.5t-6.5 149.5q0 12 10 18.5t22 2.5q12 0 18.5 -10t2.5 -22q-8 -64 7.5 -129t51.5 -117q87 -112 219 -128q64 -8 129 7.5t117 51.5q9 7 19 5t18 -11q8 -8 6 -18t-11 -19
q-113 -69 -230 -69z" />
    <glyph glyph-name="uniE636" unicode="&#xe636;" horiz-adv-x="1026" 
d="M121 761h783q51 0 87 -40q35 -38 35 -91v-404q0 -53 -35 -91q-36 -40 -87 -40h-783q-51 0 -86 40q-35 38 -35 91v404q0 53 34 91q36 40 87 40zM904 696h-783q-22 0 -39 -18q-17 -20 -17 -48v-404q0 -28 17 -48q17 -18 39 -18h783q23 0 39 18q18 20 18 48v404q0 28 -18 48
q-16 18 -39 18zM282 10v-25h496v25q0 25 -18.5 43.5t-44.5 18.5h-370q-26 0 -44.5 -18.5t-18.5 -43.5zM325 617q44 0 75 -31t31 -75t-31 -75t-75 -31t-75 31t-31 75t31 75t75 31zM321 357l-23 -111l26 -21l25 21l-23 111l10 6l-12 8l-13 -8zM368 397q46 -15 76 -57t32 -95
h-110l-24 122zM280 245h-109q2 53 31.5 94.5t75.5 57.5l27 -30zM338 551l-6 -3q-40 -20 -98 -21q-2 -7 -2 -15q0 -39 27.5 -66t65.5 -27t65.5 27t27.5 66q0 9 -2 18q-13 0 -25 2q-24 4 -53 19zM599 393h-35l-24 83v-83h-28v156h39l19 -71v71h29v-156zM674 393h-68v156h67
v-20h-32v-42h29v-19h-29v-55h33v-20zM815 549l-20 -156h-40l-13 86l-11 -86h-35l-20 156h31l9 -72l12 72h38l10 -72l11 72h28zM819 456h32v-36q0 -6 6 -6t6 6v18q0 9 -11 20q-22 22 -27.5 29t-5.5 16v17q0 30 40 30q36 0 36 -27v-27h-32v28q0 5 -5 5q-6 0 -6 -9l1 -10
q0 -9 11 -20q22 -21 27.5 -29t5.5 -18v-20q0 -31 -39 -31t-39 28v36z" />
    <glyph glyph-name="uniE637" unicode="&#xe637;" 
d="M82 816h687q11 0 19.5 -8t8.5 -20v-690v-3q-1 -42 18 -62q18 -20 57 -24q18 4 28 20q16 28 15 89v3v624q0 11 8.5 19.5t20 8.5t19.5 -8.5t8 -19.5v-624v-2q1 -78 -23 -118q-24 -41 -72 -48h-3h-687h-4q-58 3 -91 34q-37 35 -37 104v697q0 12 8 20t20 8zM182 139v-37h145
v37h-145zM182 223v-36h480v36h-480zM182 315v-36h480v36h-480zM182 403v-36h480v36h-480zM294 473v198h-36v-90l-25 90h-49v-198h36v106l30 -106h44zM389 473v26h-42v69h37v24h-37v54h41v25h-84v-198h85zM569 671h-36l-15 -91l-11 91h-49l-15 -91l-11 91h-39l24 -198h45
l14 109l16 -109h51zM574 553v-46q0 -35 48 -35q51 0 51 39v25q0 13 -7 24q-8 10 -35 36q-15 15 -15 26v13q0 11 7 11t7 -6v-36h39v34q0 35 -45 35q-50 0 -50 -38v-23q0 -11 6.5 -20t34.5 -36q15 -14 15 -25v-24q0 -7 -8 -7q-9 0 -9 7v45h-39v1zM832 772v-684q0 -12 8 -20
t20 -8t20 8t8 20v684q0 11 -8 19.5t-20 8.5t-20 -8.5t-8 -19.5zM741 760h-631v-669q0 -45 20 -64q17 -16 55 -18h1h577q-23 34 -22 87v2v662z" />
    <glyph glyph-name="uniE638" unicode="&#xe638;" 
d="M279 844h463q43 0 73.5 -31t30.5 -74v-221l-44 -43v264q0 25 -17.5 43t-42.5 18h-404l64 -56q7 -6 7.5 -15t-4.5 -16h-1l-222 -266v-408q0 -25 18 -43t43 -18h132l-16 -43l-116 -1q-43 0 -74 31t-31 74v415q0 5 2 9l118 365l2 4v0l1 1q1 2 4 5v0v0h1v1q3 2 6 3h1v0h1
q0 1 1 1v0q1 0 4 1v0zM269 244v-35h229v35h-229zM269 339v-35h229v35h-229zM269 429v-35h457v35h-457zM505 538v-35h221v35h-221zM505 635v-35h221v35h-221zM505 724v-35h221v35h-221zM826 430l-356 -355l107 -107l355 356zM456 58l-40 -115l34 -35l112 45zM846 164l-44 -44
v-81q0 -25 -17.5 -42.5t-42.5 -17.5h-83l-26 -26l19 -18h90q43 0 73.5 30.5t30.5 73.5v125zM216 556l141 169l-67 59z" />
    <glyph glyph-name="uniE639" unicode="&#xe639;" horiz-adv-x="1621" 
d="M957 625h-195v159l-430 -215l430 -215v159h212q252 0 252 -211q0 -218 -261 -218h-494v-112h499q355 0 355 319q0 334 -368 334z" />
    <glyph glyph-name="uniE63A" unicode="&#xe63a;" horiz-adv-x="1160" 
d="M937 763h-728q-17 0 -29.5 -11.5t-12.5 -28.5l-4 -635q0 -17 12 -28.5t30 -11.5h48v-72h112v72h404v-72h112v72h51q17 0 29.5 11.5t12.5 28.5l4 635q1 17 -11.5 28.5t-29.5 11.5zM229 708h689q8 0 8 -8v-306h-201l-54 92l-59 -102l-85 193l-70 -183h-235v306q0 8 7 8z
M913 107h-688q-8 0 -8 9l5 212h209l32 -48l64 179l82 -179l68 120l37 -72h211l-4 -212q0 -9 -8 -9z" />
  </font>
</defs>
</svg>
